IKResults
version=1
nRows=11
nColumns=63
inDegrees=yes

Units are S.I. units (second, meters, Newtons, ...)
If the header above contains a line with 'inDegrees', this indicates whether rotational values are in degrees (yes) or radians (no).

endheader
time	pelvis_tilt	pelvis_list	pelvis_rotation	pelvis_tx	pelvis_ty	pelvis_tz	hip_flexion_r	hip_adduction_r	hip_rotation_r	knee_angle_r	knee_angle_r_beta	ankle_angle_r	subtalar_angle_r	mtp_angle_r	hip_flexion_l	hip_adduction_l	hip_rotation_l	knee_angle_l	knee_angle_l_beta	ankle_angle_l	subtalar_angle_l	mtp_angle_l	L5_S1_Flex_Ext	L5_S1_Lat_Bending	L5_S1_axial_rotation	L4_L5_Flex_Ext	L4_L5_Lat_Bending	L4_L5_axial_rotation	L3_L4_Flex_Ext	L3_L4_Lat_Bending	L3_L4_axial_rotation	L2_L3_Flex_Ext	L2_L3_Lat_Bending	L2_L3_axial_rotation	L1_L2_Flex_Ext	L1_L2_Lat_Bending	L1_L2_axial_rotation	L1_T12_Flex_Ext	L1_T12_Lat_Bending	L1_T12_axial_rotation	Abs_r3	Abs_r2	Abs_r1	Abs_t1	Abs_t2	neck_flexion	neck_bending	neck_rotation	arm_flex_r	arm_add_r	arm_rot_r	elbow_flex_r	pro_sup_r	wrist_flex_r	wrist_dev_r	arm_flex_l	arm_add_l	arm_rot_l	elbow_flex_l	pro_sup_l	wrist_flex_l	wrist_dev_l
      2.03333333	      3.12623998	    -10.77852008	    -21.17659689	     -1.14365233	      0.95478301	     -0.20208264	     11.21648254	      2.52599352	    -22.13814724	     12.05237357	      0.21035360	      5.70915835	    -17.21724462	      0.00000000	    -11.32874667	    -11.64487472	      2.01240791	     24.12618859	      0.42108143	     27.17242941	     -1.71123202	      0.00000000	     -4.62676193	      1.04874901	     -1.68480311	     -8.59235959	      1.39483618	     -1.79010331	     -7.60130718	      2.54992833	     -1.79010331	     -5.28792621	      2.54992833	     -1.47420272	     -4.29641113	      2.13860897	     -1.36890253	     -2.64373177	      1.62451221	     -1.26360233	    -33.04849782	     11.86365850	     -9.37036947	      0.00000000	      0.00000000	      7.90463132	     -5.21097107	      0.62613364	      0.00000000	    -90.00000009	      0.00000000	     74.10826955	     89.99559364	      0.00000000	      0.00000000	     17.50567218	    -10.70905518	      3.79888298	     37.86041621	     89.99559364	      0.00000000	      0.00000000
      2.06666667	      2.84534102	     -9.92185175	    -20.36661076	     -1.12680487	      0.95188959	     -0.18525564	     10.82893549	      1.87784577	    -22.26937724	     11.44883853	      0.19981993	      4.21430945	    -17.80852125	      0.00000000	    -10.14267220	    -11.79531715	      2.97344024	     27.02649198	      0.47170127	     26.91124182	     -2.21171780	      0.00000000	     -4.60147539	      1.03023451	     -1.97346493	     -8.54539995	      1.37021190	     -2.09680649	     -7.55976392	      2.50491219	     -2.09680649	     -5.25902623	      2.50491219	     -1.72678181	     -4.27293005	      2.10085421	     -1.60344025	     -2.62928304	      1.59583326	     -1.48009870	    -32.86787858	     11.65421883	    -10.97581989	      0.00000000	      0.00000000	      7.63926899	     -4.64463652	      2.40104438	      0.00000000	    -90.00000009	      0.00000000	     74.11622076	     89.99559364	      0.00000000	      0.00000000	     16.54959767	    -10.76948662	      2.96026180	     39.05404162	     89.99559364	      0.00000000	      0.00000000
      2.10000000	      3.06636820	     -9.27826700	    -20.53142863	     -1.11190914	      0.95074761	     -0.16735087	     10.02504464	      1.44818061	    -21.78657644	     11.63698229	      0.20310366	      3.50373279	    -17.59852979	      0.00000000	     -9.43028844	    -11.87279739	      2.82818157	     30.15777380	      0.52635245	     25.97348579	     -2.51552732	      0.00000000	     -4.70106491	      0.97722644	     -2.03584662	     -8.73034765	      1.29971116	     -2.16308703	     -7.72337954	      2.37602836	     -2.16308703	     -5.37284709	      2.37602836	     -1.78136579	     -4.36540888	      1.99276015	     -1.65412538	     -2.68618849	      1.51372375	     -1.52688497	    -33.57923656	     11.05458090	    -11.32276815	      0.00000000	      0.00000000	      7.22468922	     -4.45467601	      2.87677722	      0.00000000	    -90.00000009	      0.00000000	     74.11738918	     89.99559364	      0.00000000	      0.00000000	     16.26017733	    -10.91487976	      2.96995233	     39.53725789	     89.99559364	      0.00000000	      0.00000000
      2.13333333	      2.71985625	     -8.11881470	    -19.66244820	     -1.09911826	      0.94895285	     -0.15112999	     10.03351094	      0.66422241	    -21.72186523	     12.18432699	      0.21265662	      3.30050240	    -18.07968214	      0.00000000	     -6.45481169	    -11.60073457	      5.03890008	     34.60074098	      0.60389685	     24.51957087	     -3.95610654	      0.00000000	     -4.72029968	      0.92997917	     -2.40121504	     -8.76606854	      1.23687230	     -2.55129098	     -7.75498035	      2.26115136	     -2.55129098	     -5.39483051	      2.26115136	     -2.10106316	     -4.38327029	      1.89641353	     -1.95098722	     -2.69717924	      1.44053774	     -1.80091128	    -33.71662861	     10.52011041	    -13.35483770	      0.00000000	      0.00000000	      7.36368218	     -3.19535602	      5.34931575	      0.00000000	    -90.00000009	      0.00000000	     74.12577006	     89.99559364	      0.00000000	      0.00000000	     15.44324772	    -11.88246354	      3.84080896	     40.96950938	     89.99559364	      0.00000000	      0.00000000
      2.16666667	      2.61595533	     -7.13469448	    -19.47580541	     -1.08901375	      0.94836040	     -0.13482408	      9.79342401	      0.20084753	    -21.02016255	     12.70047677	      0.22166514	      3.54355529	    -17.95127981	      0.00000000	     -3.36756374	    -11.39942416	      6.13189490	     39.19839823	      0.68414111	     22.70717919	     -4.67359581	      0.00000000	     -4.82806141	      0.86591929	     -2.56193258	     -8.96619284	      1.15167266	     -2.72205337	     -7.93202209	      2.10539616	     -2.72205337	     -5.51799138	      2.10539616	     -2.24169101	     -4.48333782	      1.76578262	     -2.08157022	     -2.75875429	      1.34130898	     -1.92144944	    -34.48635984	      9.79545220	    -14.24870045	      0.00000000	      0.00000000	      7.38463333	     -2.33874112	      6.30057946	      0.00000000	    -90.00000009	      0.00000000	     74.13459395	     89.99559364	      0.00000000	      0.00000000	     15.56244378	    -12.84403994	      5.29389096	     41.61254058	     89.99559364	      0.00000000	      0.00000000
      2.20000000	      2.36033613	     -6.10699485	    -19.33017590	     -1.08134559	      0.94796986	     -0.11955351	      9.69374420	     -0.12967826	    -20.15960190	     12.93713559	      0.22579561	      4.08851982	    -17.63041804	      0.00000000	      0.54029125	    -11.19454067	      7.16590135	     43.82325941	      0.76486017	     20.75870116	     -4.99457890	      0.00000000	     -4.94970555	      0.80541205	     -2.67670035	     -9.19209817	      1.07119803	     -2.84399412	     -8.13187124	      1.95827886	     -2.84399412	     -5.65701847	      1.95827886	     -2.34211281	     -4.59629657	      1.64239626	     -2.17481904	     -2.82826175	      1.24758327	     -2.00752526	    -35.35525174	      9.11098221	    -14.88700435	      0.00000000	      0.00000000	      7.43162183	     -1.38958284	      6.97860176	      0.00000000	    -90.00000009	      0.00000000	     74.14376847	     89.99559364	      0.00000000	      0.00000000	     16.24246113	    -14.01645967	      7.47315015	     42.14332852	     89.99559364	      0.00000000	      0.00000000
      2.23333333	      1.93139475	     -5.11326219	    -19.20061517	     -1.07564220	      0.94759441	     -0.10574431	      9.72652496	     -0.33289129	    -19.39305122	     12.89007100	      0.22497418	      4.88397422	    -16.95886408	      0.00000000	      4.98323918	    -11.04368283	      8.04954530	     47.90397002	      0.83608200	     18.92394599	     -5.05039751	      0.00000000	     -5.08584822	      0.76185021	     -2.72121929	     -9.44492872	      1.01326078	     -2.89129549	     -8.35554004	      1.85236260	     -2.89129549	     -5.81261593	      1.85236260	     -2.38106688	     -4.72271865	      1.55356495	     -2.21099067	     -2.90605367	      1.18010598	     -2.04091447	    -36.32770523	      8.61820196	    -15.13460532	      0.00000000	      0.00000000	      7.56389312	     -0.35577323	      7.17258960	      0.00000000	    -90.00000009	      0.00000000	     74.15190630	     89.99559364	      0.00000000	      0.00000000	     17.56968624	    -15.15083588	     10.02853518	     42.58496457	     89.99559364	      0.00000000	      0.00000000
      2.26666667	      1.38300541	     -4.15863190	    -19.08053269	     -1.07137156	      0.94722584	     -0.09375885	      9.83012327	     -0.50976922	    -19.00175722	     12.57020730	      0.21939151	      5.78921931	    -15.71476472	      0.00000000	      9.56014751	    -10.90618903	      8.69354480	     50.87594502	      0.88795275	     17.48658256	     -5.00968466	      0.00000000	     -5.24342616	      0.73680938	     -2.67763709	     -9.73756672	      0.97995648	     -2.84498941	     -8.61442484	      1.79147833	     -2.84498941	     -5.99271176	      1.79147833	     -2.34293245	     -4.86904553	      1.50250169	     -2.17558014	     -2.99609371	      1.14131773	     -2.00822782	    -37.45326872	      8.33493510	    -14.89221420	      0.00000000	      0.00000000	      7.80904696	      0.70959125	      6.65392154	      0.00000000	    -90.00000009	      0.00000000	     74.16128605	     89.99559364	      0.00000000	      0.00000000	     19.70519311	    -16.08625280	     13.03228680	     42.76709923	     89.99559364	      0.00000000	      0.00000000
      2.30000000	      0.95133860	     -3.24168354	    -19.08083803	     -1.06817512	      0.94713174	     -0.08356832	      9.85628058	     -0.82259494	    -19.27424962	     12.19772941	      0.21289054	      6.89334183	    -13.48877504	      0.00000000	     13.64030662	    -10.73092119	      8.86731028	     52.27462449	      0.91236431	     16.54146681	     -5.07716386	      0.00000000	     -5.46051467	      0.71433897	     -2.53576353	    -10.14072180	      0.95007083	     -2.69424875	     -8.97107956	      1.73684376	     -2.69424875	     -6.24082222	      1.73684376	     -2.21879309	     -5.07063393	      1.45668002	     -2.06030787	     -3.12013808	      1.10651106	     -1.90182265	    -39.00391026	      8.08074526	    -14.10315604	      0.00000000	      0.00000000	      8.32131370	      1.95872630	      5.49235112	      0.00000000	    -90.00000009	      0.00000000	     74.17858539	     89.99559364	      0.00000000	      0.00000000	     22.66692038	    -16.79831539	     16.41428827	     42.81727959	     89.99559364	      0.00000000	      0.00000000
      2.33333333	      0.15110560	     -2.21567034	    -19.14408035	     -1.06542731	      0.94632646	     -0.07533555	     10.42592770	     -1.22704314	    -19.53549499	     11.92826958	      0.20818758	      7.73366386	    -11.70624752	      0.00000000	     17.63204176	    -10.50910214	      8.67319176	     52.10272892	      0.90936417	     16.02050996	     -5.42827753	      0.00000000	     -5.64305518	      0.70221693	     -2.33056572	    -10.47971778	      0.93394852	     -2.47622607	     -9.27097536	      1.70737025	     -2.47622607	     -6.44944777	      1.70737025	     -2.03924500	     -5.24014104	      1.43196077	     -1.89358464	     -3.22444173	      1.08773403	     -1.74792429	    -40.30777886	      7.94361840	    -12.96190735	      0.00000000	      0.00000000	      8.80009428	      3.23418187	      3.53366636	      0.00000000	    -90.00000009	      0.00000000	     74.18713450	     89.99559364	      0.00000000	      0.00000000	     25.97914597	    -16.81351954	     18.78615891	     42.54623664	     89.99559364	      0.00000000	      0.00000000
      2.36666667	     -0.58963412	     -1.15678528	    -19.20277100	     -1.06323253	      0.94540727	     -0.06896513	     11.11875259	     -1.91990961	    -20.91777935	     11.92467235	      0.20812479	      8.76432453	     -8.80522661	      0.00000000	     20.92332640	    -10.22764804	      8.06210360	     50.31417663	      0.87814804	     15.63136624	     -5.75439455	      0.00000000	     -5.87059259	      0.68826745	     -2.10141095	    -10.90227750	      0.91539570	     -2.23274914	     -9.64479657	      1.67345347	     -2.23274914	     -6.70950027	      1.67345347	     -1.83873458	     -5.45143228	      1.40351498	     -1.70739640	     -3.35445661	      1.06612627	     -1.57605821	    -41.93305583	      7.78581900	    -11.68741730	      0.00000000	      0.00000000	      9.64440592	      4.71480010	      1.26192314	      0.00000000	    -90.00000009	      0.00000000	     74.20111674	     89.99559364	      0.00000000	      0.00000000	     29.84996083	    -16.78952257	     21.84270531	     42.37411773	     89.99559364	      0.00000000	      0.00000000
